HIERARCHY
ROOT joint_Root
{
	OFFSET 0.0 0.0 0.0
	CHANNELS 6 Xposition Yposition Zposition Zrotation Xrotation Yrotation 
	JOINT Hips
	{
		OFFSET -0.726466 93.3139 -2.00062
		CHANNELS 6 Xposition Yposition Zposition Zrotation Xrotation Yrotation 
		JOINT Spine
		{
			OFFSET 15.7357 0.0 0.0
			CHANNELS 6 Xposition Yposition Zposition Zrotation Xrotation Yrotation 
			JOINT Chest
			{
				OFFSET 8.98455 -0.406207 0.0
				CHANNELS 6 Xposition Yposition Zposition Zrotation Xrotation Yrotation 
				JOINT Neck
				{
					OFFSET 16.3773 0.0 0.0
					CHANNELS 6 Xposition Yposition Zposition Zrotation Xrotation Yrotation 
					JOINT Head
					{
						OFFSET 6.45672 0.0 0.0
						CHANNELS 6 Xposition Yposition Zposition Zrotation Xrotation Yrotation 
						End Site
						{
							OFFSET 0.0 0.0 0.0
						}
					}
				}
				JOINT Shoulder_L
				{
					OFFSET 12.9942 -0.242716 4.98039
					CHANNELS 6 Xposition Yposition Zposition Zrotation Xrotation Yrotation 
					JOINT UpperArm_L
					{
						OFFSET 5.34809 0.0 0.0
						CHANNELS 6 Xposition Yposition Zposition Zrotation Xrotation Yrotation 
						JOINT LowerArm_L
						{
							OFFSET 24.3286 1.87007e-05 0.0
							CHANNELS 6 Xposition Yposition Zposition Zrotation Xrotation Yrotation 
							JOINT Hand_L
							{
								OFFSET 22.2916 0.0 0.0
								CHANNELS 6 Xposition Yposition Zposition Zrotation Xrotation Yrotation 
								End Site
								{
									OFFSET 0.0 0.0 0.0
								}
							}
						}
					}
				}
				JOINT Shoulder_R
				{
					OFFSET 12.9945 -0.242716 -4.98039
					CHANNELS 6 Xposition Yposition Zposition Zrotation Xrotation Yrotation 
					JOINT UpperArm_R
					{
						OFFSET -5.34813 0.0 0.0
						CHANNELS 6 Xposition Yposition Zposition Zrotation Xrotation Yrotation 
						JOINT LowerArm_R
						{
							OFFSET -24.3289 0.000322201 0.0
							CHANNELS 6 Xposition Yposition Zposition Zrotation Xrotation Yrotation 
							JOINT Hand_R
							{
								OFFSET -22.2915 -0.000108084 0.0
								CHANNELS 6 Xposition Yposition Zposition Zrotation Xrotation Yrotation 
								End Site
								{
									OFFSET 0.0 0.0 0.0
								}
							}
						}
					}
				}
			}
		}
		JOINT UpperLeg_L
		{
			OFFSET -2.19248 -6.46944 0.0
			CHANNELS 6 Xposition Yposition Zposition Zrotation Xrotation Yrotation 
			JOINT LowerLeg_L
			{
				OFFSET 39.0811 0.0 -1.23785e-05
				CHANNELS 6 Xposition Yposition Zposition Zrotation Xrotation Yrotation 
				JOINT Foot_L
				{
					OFFSET 40.9854 0.0 -1.26872e-05
					CHANNELS 6 Xposition Yposition Zposition Zrotation Xrotation Yrotation 
					JOINT Toes_L
					{
						OFFSET 11.7543 0.0 0.0
						CHANNELS 6 Xposition Yposition Zposition Zrotation Xrotation Yrotation 
						End Site
						{
							OFFSET 0.0 0.0 0.0
						}
					}
				}
			}
		}
		JOINT UpperLeg_R
		{
			OFFSET -2.19251 6.46944 0.0
			CHANNELS 6 Xposition Yposition Zposition Zrotation Xrotation Yrotation 
			JOINT LowerLeg_R
			{
				OFFSET -39.0811 -0.00228153 -0.0401928
				CHANNELS 6 Xposition Yposition Zposition Zrotation Xrotation Yrotation 
				JOINT Foot_R
				{
					OFFSET -40.9854 0.0 0.0
					CHANNELS 6 Xposition Yposition Zposition Zrotation Xrotation Yrotation 
					JOINT Toes_R
					{
						OFFSET -11.7543 0.0 0.0
						CHANNELS 6 Xposition Yposition Zposition Zrotation Xrotation Yrotation 
						End Site
						{
							OFFSET 0.0 0.0 0.0
						}
					}
				}
			}
		}
	}
}
MOTION
Frames:	4
Frame Time:	0.0333333
0.000000 0.000000 0.000000 0.000000 0.000000 -0.000000 -171.008000 91.140700 192.130000 65.867000 84.923400 28.729700 15.735700 0.000005 -0.000001 96.760500 83.680900 -95.408000 8.984550 -0.406207 -0.000000 4.769890 1.449640 2.641710 16.377300 -0.000001 -0.000001 2.109010 -0.169431 2.252500 6.456720 -0.000001 -0.000000 3.608950 1.237600 -3.540090 12.994200 -0.242716 4.980390 -89.530600 -1.396060 -71.414100 5.348090 -0.000007 -0.000001 -75.661500 31.052000 -11.754500 24.328600 0.000019 0.000005 4.931890 17.810900 -15.754800 22.291600 -0.000001 0.000005 3.199210 5.417400 -3.509990 12.994500 -0.242716 -4.980390 87.716700 7.584190 -73.190400 -5.348130 -0.000001 -0.000004 -62.884200 30.847100 -18.769600 -24.328900 0.000322 -0.000009 3.379040 10.660500 -17.709100 -22.291500 -0.000108 -0.000004 10.370900 5.366390 -1.875360 -2.192480 -6.469440 -0.000000 -176.037000 -11.686900 -20.043100 39.081100 -0.000007 -0.000012 0.077532 -0.030455 68.551200 40.985400 -0.000006 -0.000013 5.541250 -5.147860 -47.164700 11.754300 -0.000000 0.000003 -0.005836 -0.069343 -19.398800 -2.192510 6.469440 -0.000001 -177.054000 7.735160 175.084000 -39.081100 -0.002282 -0.040193 -0.125869 0.246560 27.650700 -40.985400 0.000008 0.000006 2.060110 -1.426590 -68.591100 -11.754300 -0.000006 -0.000006 -0.009718 -0.101514 -20.708800
0.000000 0.000000 0.000000 0.000000 0.000000 -0.000000 -167.994000 91.394400 192.109000 79.319300 83.410300 15.351700 15.735700 0.000005 -0.000001 100.860000 83.465500 -100.003000 8.984550 -0.406207 -0.000000 5.054960 2.437130 1.604720 16.377300 -0.000001 -0.000001 1.858040 -0.069817 2.321640 6.456720 -0.000001 -0.000000 3.574730 0.643551 -3.823750 12.994200 -0.242716 4.980390 -89.499000 -1.437930 -70.789500 5.348090 -0.000007 -0.000001 -77.451700 26.716300 -7.401230 24.328600 0.000019 0.000005 4.522030 19.463500 -13.352300 22.291600 -0.000001 0.000005 2.856490 5.378110 -2.240640 12.994500 -0.242716 -4.980390 87.925300 7.243780 -73.970800 -5.348130 -0.000001 -0.000004 -60.644000 31.920700 -23.474200 -24.328900 0.000322 -0.000009 3.559270 9.258900 -21.146000 -22.291500 -0.000108 -0.000004 10.285200 5.376620 -2.192390 -2.192480 -6.469440 -0.000000 -177.270000 -12.700300 -22.469700 39.081100 -0.000007 -0.000012 0.074841 -0.038010 63.072100 40.985400 -0.000006 -0.000013 4.653570 -3.290330 -50.491700 11.754300 -0.000000 0.000003 -0.007644 -0.085113 -20.042300 -2.192510 6.469440 -0.000001 -178.637000 7.783930 178.581000 -39.081100 -0.002282 -0.040193 -0.126219 0.276944 25.066300 -40.985400 0.000008 0.000006 1.985590 0.515077 -69.379700 -11.754300 -0.000006 -0.000006 -0.009716 -0.101499 -20.708200
0.000000 0.000000 0.000000 0.000000 0.000000 -0.000000 -165.054000 91.460400 192.115000 85.551000 81.810900 9.038800 15.735700 0.000005 -0.000001 104.070000 83.266400 -103.581000 8.984550 -0.406207 -0.000000 5.290170 3.256220 0.827725 16.377300 -0.000001 -0.000001 1.534660 0.098122 2.231520 6.456720 -0.000001 -0.000000 3.346370 0.334550 -4.233620 12.994200 -0.242716 4.980390 -89.589900 -1.144010 -70.276000 5.348090 -0.000007 -0.000001 -78.085600 22.319800 -3.307530 24.328600 0.000019 0.000005 3.971120 19.063000 -11.999400 22.291600 -0.000001 0.000005 3.722370 5.355990 -1.558090 12.994500 -0.242716 -4.980390 88.018000 7.201220 -74.566800 -5.348130 -0.000001 -0.000004 -57.607300 32.508600 -28.196900 -24.328900 0.000322 -0.000009 3.474700 7.566410 -24.765100 -22.291500 -0.000108 -0.000004 10.284600 5.390280 -2.623960 -2.192480 -6.469440 -0.000000 -177.880000 -13.636800 -23.671000 39.081100 -0.000007 -0.000012 0.063717 -0.045997 54.172000 40.985400 -0.000006 -0.000013 4.636530 -2.408010 -52.514300 11.754300 -0.000000 0.000003 -0.007535 -0.084202 -20.005100 -2.192510 6.469440 -0.000001 179.848000 8.364400 -178.218000 -39.081100 -0.002282 -0.040193 -0.137866 0.338362 22.648600 -40.985400 0.000008 0.000006 1.928110 2.845560 -70.207800 -11.754300 -0.000006 -0.000006 -0.009519 -0.100006 -20.647100
0.000000 0.000000 0.000000 0.000000 0.000000 -0.000000 -162.170000 91.352000 192.125000 87.140200 80.604000 7.066750 15.735700 0.000005 -0.000001 105.933000 83.175600 -105.636000 8.984550 -0.406207 -0.000000 5.357700 3.732090 0.419541 16.377300 -0.000001 -0.000001 1.194320 0.308162 2.146490 6.456720 -0.000001 -0.000000 2.968400 0.204546 -4.832210 12.994200 -0.242716 4.980390 -89.706000 -0.799392 -69.803700 5.348090 -0.000007 -0.000001 -78.000000 18.849300 0.282952 24.328600 0.000019 0.000005 3.624930 18.498500 -11.291600 22.291600 -0.000001 0.000005 4.705470 5.361250 -1.719660 12.994500 -0.242716 -4.980390 88.075300 7.248320 -75.085800 -5.348130 -0.000001 -0.000004 -54.408400 32.515900 -32.571900 -24.328900 0.000322 -0.000009 3.485610 6.499030 -28.294900 -22.291500 -0.000108 -0.000004 10.703900 5.405580 -3.119070 -2.192480 -6.469440 -0.000000 -177.770000 -13.859200 -23.363800 39.081100 -0.000007 -0.000012 0.040652 -0.046068 41.424900 40.985400 -0.000006 -0.000013 4.229770 -2.513390 -53.128900 11.754300 -0.000000 0.000003 -0.008607 -0.092929 -20.361600 -2.192510 6.469440 -0.000001 178.680000 9.298690 -175.333000 -39.081100 -0.002282 -0.040193 -0.137525 0.382278 20.225900 -40.985400 0.000008 0.000006 1.765350 5.007240 -70.984200 -11.754300 -0.000006 -0.000006 -0.007919 -0.087373 -20.130900
